# xmcd
#
# Track frame offsets: 
#        150
#        23173
#        50059
#        71501
#        106962
#        142252
#        180407
#
# Disc length: 3213 seconds
#
# Revision: 0
# Processed by: cddbd v1.5.1PL0 Copyright (c) Steve Scherf et al.
# Submitted via: ExactAudioCopy v0.95a5
#
DISCID=610c8b07
DTITLE=Eric Clapton - 1974-12-04 Hammersmith London D1
DYEAR=1974
DGENRE=Blues
TTITLE0=Smile
TTITLE1=Let It Grow
TTITLE2=Can't Find My Way Home
TTITLE3=I Shot The Sheriff
TTITLE4=Tell The Truth
TTITLE5=Rambling>Haver You Ever>Rambling
TTITLE6=Willie And The Hand Jive>Get Ready 
EXTD=
EXTT0=
EXTT1=
EXTT2=
EXTT3=
EXTT4=
EXTT5=
EXTT6=
PLAYORDER=
